<svg width="1424" height="727" viewBox="0 0 1424 727" fill="none" xmlns="http://www.w3.org/2000/svg">
<path opacity="0.8" d="M1376.85 228.345C1370.59 197.168 1345.97 171.095 1306.56 150.69C1267.15 130.29 1213.06 115.619 1148.11 107.205C1018.21 90.378 845.018 98.597 659.346 135.875C473.673 173.153 310.733 232.419 197.393 298.082C140.72 330.915 96.4861 365.326 68.0073 399.356C39.5226 433.393 26.8779 466.947 33.1374 498.124C39.3968 529.301 64.0129 555.374 103.428 575.778C142.835 596.179 196.923 610.85 261.878 619.264C391.779 636.091 564.968 627.872 750.64 590.594C936.313 553.316 1099.25 494.05 1212.59 428.387C1269.27 395.554 1313.5 361.142 1341.98 327.112C1370.46 293.076 1383.11 259.522 1376.85 228.345Z" stroke="white" stroke-opacity="0.7" stroke-width="1.5"/>
<path opacity="0.65" d="M1390.25 360.864C1390.14 329.065 1371.03 298.722 1336.31 271.078C1301.6 243.44 1251.37 218.583 1189.27 197.762C1065.07 156.123 893.568 130.683 704.191 131.338C514.814 131.993 343.487 158.619 219.586 201.115C157.632 222.365 107.576 247.569 73.0523 275.447C38.5212 303.33 19.6243 333.804 19.7343 365.603C19.8442 397.402 38.9515 427.745 73.6745 455.389C108.391 483.027 158.619 507.884 220.719 528.705C344.911 570.344 516.418 595.784 705.795 595.129C895.172 594.474 1066.5 567.848 1190.4 525.351C1252.35 504.102 1302.41 478.898 1336.93 451.02C1371.46 423.137 1390.36 392.663 1390.25 360.864Z" stroke="white" stroke-opacity="0.7" stroke-width="1.5"/>
</svg>
