<svg width="1527" height="700" viewBox="0 0 1527 700" fill="none" xmlns="http://www.w3.org/2000/svg">
<path opacity="0.65" d="M1390.91 230.298C1385.72 198.924 1362.02 172.021 1323.33 150.274C1284.65 128.531 1231.09 112.01 1166.47 101.368C1037.22 80.0867 863.851 82.3487 677.007 113.223C490.163 144.098 325.282 197.729 209.753 259.457C151.984 290.324 106.594 323.194 76.9623 356.225C47.3247 389.263 33.5343 422.363 38.7185 453.736C43.9028 485.11 67.6083 512.014 106.299 533.761C144.981 555.503 198.533 572.025 263.16 582.666C392.406 603.948 565.775 601.686 752.619 570.811C939.464 539.937 1104.34 486.306 1219.87 424.577C1277.64 393.711 1323.03 360.84 1352.66 327.809C1382.3 294.771 1396.09 261.672 1390.91 230.298Z" stroke="black" stroke-opacity="0.7" stroke-width="1.5"/>
<path opacity="0.65" d="M1508.28 446.631C1510.61 412.087 1492.19 377.673 1456.63 344.999C1421.07 312.332 1368.47 281.493 1302.67 254.125C1171.09 199.392 986.923 158.604 781.359 144.761C575.795 130.918 387.82 146.645 250.089 183.243C181.22 201.543 124.956 225.05 85.3402 252.655C45.7168 280.266 22.8502 311.899 20.5239 346.444C18.1976 380.988 36.6166 415.402 72.1804 448.075C107.737 480.743 160.342 511.581 226.136 538.95C357.716 593.683 541.885 634.471 747.449 648.314C953.013 662.157 1140.99 646.429 1278.72 609.832C1347.59 591.532 1403.85 568.025 1443.47 540.42C1483.09 512.809 1505.96 481.176 1508.28 446.631Z" stroke="black" stroke-opacity="0.7" stroke-width="1.5"/>
</svg>
