<svg width="423" height="841" viewBox="0 0 423 841" fill="none" xmlns="http://www.w3.org/2000/svg">
<path opacity="0.6" d="M420.5 0L434.972 329.129L550.442 20.5807L462.499 338.073L667.664 80.3083L485.914 355.086L760.692 173.336L502.927 378.501L820.419 290.558L511.871 406.028L841 420.5L511.871 434.972L820.419 550.442L502.927 462.499L760.692 667.664L485.914 485.914L667.664 760.692L462.499 502.927L550.442 820.419L434.972 511.871L420.5 841L406.028 511.871L290.558 820.419L378.501 502.927L173.336 760.692L355.086 485.914L80.3083 667.664L338.073 462.499L20.5807 550.442L329.129 434.972L0 420.5L329.129 406.028L20.5807 290.558L338.073 378.501L80.3083 173.336L355.086 355.086L173.336 80.3083L378.501 338.073L290.558 20.5807L406.028 329.129L420.5 0Z" fill="#9874FF" fill-opacity="0.29"/>
</svg>
