<svg width="503" height="505" viewBox="0 0 503 505" fill="none" xmlns="http://www.w3.org/2000/svg">
<path opacity="0.6" d="M251.276 0L262.061 198.017L347.435 19.2204L281.988 206.312L428.955 73.9555L297.24 221.638L483.425 155.872L305.494 241.663L502.552 252.5L305.494 263.337L483.425 349.128L297.24 283.362L428.955 431.044L281.988 298.688L347.435 485.78L262.061 306.983L251.276 505L240.491 306.983L155.117 485.78L220.564 298.688L73.597 431.044L205.312 283.362L19.1272 349.128L197.057 263.337L0 252.5L197.057 241.663L19.1272 155.872L205.312 221.638L73.597 73.9555L220.564 206.312L155.117 19.2204L240.491 198.017L251.276 0Z" fill="#DADADA"/>
</svg>
